<?xml version="1.0" encoding="utf-8"?>
<svg xmlns="http://www.w3.org/2000/svg" version="1.1" id="Layer_1" x="0px" y="0px" width="100%" viewBox="0 0 1024 1024" enable-background="new 0 0 1024 1024">
  <path fill="#000000" opacity="1.000000" stroke="none" d=" M159.878494,666.991821   C144.622162,632.819275 134.920532,597.431946 129.929230,560.798096   C126.118874,532.831665 126.006348,504.754730 128.517090,476.605438   C132.796982,428.621460 145.449997,382.975067 167.048996,340.020142   C192.627335,289.151367 227.731918,245.845016 272.518219,210.423508   C323.062378,170.448074 380.124756,144.982986 443.296600,133.143784   C480.989441,126.079651 518.891357,124.967064 557.096741,129.424377   C615.307983,136.215714 669.397095,154.538269 718.804504,185.972992   C772.019409,219.830124 814.619629,264.200256 846.877197,318.426971   C871.622192,360.024719 886.725952,405.053497 894.406372,452.705353   C898.848511,480.265961 900.041748,507.994293 898.161377,535.810608   C892.904297,613.578186 866.766541,683.617249 818.674194,744.988770   C768.129639,809.489624 703.775391,854.398071 625.127319,878.375916   C594.067322,887.845276 562.332764,892.859009 529.905823,894.493713   C470.403534,897.493408 413.415833,886.713623 359.105011,862.867981   C278.824280,827.620117 217.056427,771.544128 174.139801,694.910889   C169.088760,685.891663 164.454697,676.671448 159.878494,666.991821  M337.708435,183.287354   C287.398193,209.942291 245.549500,246.383057 211.780914,292.169556   C167.737152,351.888000 144.266144,419.013885 140.490479,492.929443   C139.020233,521.712219 140.874741,550.415527 146.125977,578.900452   C155.344803,628.907043 173.891800,675.072388 202.327332,717.147888   C236.439682,767.623169 280.491821,807.393127 333.879242,836.670776   C385.237457,864.835632 440.037964,880.850525 498.860596,881.930664   C522.849304,882.371155 546.868103,882.408142 570.610962,878.422729   C618.217773,870.431458 662.985046,854.504028 704.512939,829.686523   C752.638245,800.926270 792.372681,763.202148 823.654480,716.825134   C862.399170,659.384277 882.397461,595.592102 885.546509,526.503906   C887.008545,494.429047 884.145691,462.633667 877.260803,431.274078   C861.694153,360.371033 827.918335,299.565887 776.203491,248.535233   C710.019897,183.227295 630.375916,147.697952 538.026733,140.581650   C512.464172,138.611832 486.777740,139.538589 461.265594,143.196960   C417.998413,149.401321 377.065857,162.696320 337.708435,183.287354  z"/>
  <path fill="#000000" opacity="1.000000" stroke="none" d=" M824.410400,317.654144   C848.710571,355.394989 864.018066,396.362335 873.197754,439.736389   C879.537292,469.691101 880.959229,499.948303 879.563232,530.544434   C877.667419,572.093384 868.792358,611.968384 852.996460,650.280518   C836.333923,690.694641 813.029175,726.878906 783.207825,759.020569   C747.748779,797.238403 706.080750,826.581848 658.470032,847.269531   C624.446350,862.053528 588.870483,871.645874 551.762146,875.468933   C482.069916,882.648865 415.596436,871.060669 352.717529,840.693665   C299.837341,815.155518 255.498489,778.685242 219.757385,731.829346   C188.669327,691.073486 167.403503,645.774353 155.358719,596.062561   C147.029770,561.686951 143.693024,526.716003 145.986008,491.502777   C152.501251,391.448639 192.920609,307.469360 267.177429,239.909119   C321.727905,190.278076 385.843048,160.575089 458.374176,148.952194   C496.953156,142.770004 535.538574,143.731781 574.136169,150.422501   C619.293518,158.250275 661.866882,173.012299 700.989136,196.746613   C751.346375,227.296906 792.388733,267.697723 824.410400,317.654144  M153.466873,470.916840   C152.756012,480.540741 151.724564,490.153687 151.396072,499.790619   C150.508896,525.816650 152.766251,551.612549 157.266022,577.268311   C164.690140,619.597412 179.657379,659.157471 201.884369,695.754700   C239.083633,757.004089 290.446198,803.148438 354.566376,834.947266   C396.814819,855.899414 441.625488,867.581665 488.723572,870.888306   C518.312134,872.965698 547.640869,871.438721 576.721802,866.049927   C615.813232,858.806213 652.715698,845.413025 687.634033,826.226318   C740.099121,797.398315 782.887817,758.058777 815.899963,708.352783   C849.243530,658.147827 867.880188,602.648987 872.910706,542.527893   C875.449707,512.184021 874.869446,481.956970 869.621460,452.000671   C857.164185,380.893188 826.701355,318.590240 776.762451,266.189941   C752.524231,240.757065 725.839111,218.204178 695.398438,200.416824   C654.805664,176.697372 611.177185,161.803375 564.636780,154.892746   C532.424622,150.109665 500.238800,149.997009 468.039520,153.609711   C437.950897,156.985596 408.925232,165.113235 380.716431,175.978699   C332.537323,194.536331 291.136810,223.307541 254.787094,259.774719   C219.192261,295.484619 192.594040,336.914673 174.566940,383.905121   C163.902969,411.702454 157.039886,440.453583 153.466873,470.916840  z"/>
  <path fill="#000000" opacity="1.000000" stroke="none" d=" M681.429443,321.152649   C679.325256,326.089935 675.833191,328.132355 670.923401,327.353912   C666.067139,326.583984 663.459351,323.137634 662.058167,318.819122   C660.444641,313.846161 662.461609,308.125061 666.572021,304.917389   C675.848694,297.678375 692.049561,302.219971 697.121399,313.481201   C702.042053,324.406891 698.392151,338.044159 688.773254,345.320496   C685.036011,348.147522 680.639587,349.713226 676.704407,351.894775   C676.556091,354.100525 678.370056,354.466827 679.367188,355.441132   C684.105103,360.070587 684.603271,365.388458 680.272156,370.474731   C678.581360,372.460358 678.595703,374.095612 679.322937,376.340576   C703.426758,450.750305 727.482727,525.175537 751.538513,599.600830   C752.041260,601.156250 752.458984,602.739136 752.956848,604.447998   C748.634644,606.226013 746.150879,605.343445 744.736450,600.945740   C728.477234,550.391541 712.143616,499.861206 695.797058,449.335114   C690.521179,433.027802 685.189331,416.738220 679.787476,400.472290   C678.652771,397.055420 677.766235,393.193237 672.824768,393.250793   C667.845520,393.308777 666.584900,396.997162 665.377441,400.706726   C648.993347,451.040314 632.618652,501.376984 616.265076,551.720581   C610.968262,568.026428 605.645569,584.325012 600.538269,600.690491   C599.078674,605.367554 596.475952,606.220886 591.898865,604.391541   C594.592957,595.917969 597.214783,587.555481 599.908997,579.216248   C619.970581,517.121094 640.043152,455.029449 660.126404,392.941284   C661.356201,389.139435 662.430542,385.251831 664.068970,381.626404   C666.249329,376.801727 667.839539,372.732361 663.381836,367.808502   C660.310059,364.415497 662.347595,359.924469 665.052246,356.372192   C666.035156,355.081299 667.934570,354.554321 668.259644,351.964569   C653.154724,349.405182 640.944153,340.010529 627.159668,334.096008   C623.322205,332.449432 619.460510,330.943512 615.371887,330.044769   C596.927307,325.990265 578.311768,326.219147 559.755981,328.580383   C551.028259,329.690948 543.106384,333.361206 537.737549,341.020752   C536.982178,342.098450 536.077942,343.364471 534.947266,343.838135   C528.616760,346.490143 529.231995,351.840179 529.234985,357.209961   C529.290527,457.037140 529.284180,556.864319 529.292603,656.691528   C529.293274,664.164978 529.299561,664.165039 536.484985,664.717346   C545.519348,665.411804 551.460083,673.069092 551.682617,684.830078   C526.201904,684.830078 500.729858,684.830078 475.273834,684.830078   C474.799072,673.035889 481.145844,665.396423 492.054138,664.757324   C496.103943,664.520020 496.042908,662.125977 496.069244,659.364807   C496.261658,639.205566 496.604706,619.046448 496.617188,598.887085   C496.667511,517.558960 496.587433,436.230804 496.677582,354.902802   C496.682556,350.414459 496.286804,346.649261 491.786530,344.480713   C491.071747,344.136230 490.425903,343.458893 489.975555,342.783783   C481.570404,330.183929 468.538361,327.721039 454.926422,327.397491   C439.651398,327.034393 424.280182,325.947937 409.239319,330.249420   C399.371918,333.071381 390.485291,337.979950 381.435059,342.585266   C373.879669,346.429932 366.463745,350.659943 357.805267,351.660645   C357.371124,351.710815 356.982941,352.158813 356.812714,352.268005   C356.912079,354.581024 358.727539,354.882751 359.728149,355.891266   C363.706268,359.901031 364.487701,365.722595 360.717804,369.846191   C358.141693,372.664001 358.644501,374.929443 359.766724,377.920502   C369.300629,403.331726 377.444244,429.218048 385.900604,454.996582   C386.449951,456.671234 387.309967,458.390839 386.656433,460.677063   C382.580536,460.195038 379.865265,458.587036 378.465057,454.312653   C372.556335,436.275085 366.412903,418.314240 360.312531,400.339905   C359.343079,397.483582 358.201019,394.651245 355.025543,393.462799   C350.418549,391.738586 346.132538,393.811188 344.159973,399.436584   C339.754456,412.000275 335.703308,424.687958 331.471375,437.312866   C329.672455,442.679565 327.670502,447.980408 325.969604,453.376984   C324.661438,457.527435 322.298187,459.966003 317.548920,459.546783   C316.565613,457.573181 317.881500,455.822815 318.480133,454.033386   C327.299377,427.671326 335.162750,400.977020 345.789490,375.242706   C346.410706,373.738312 346.417877,372.628754 345.368347,371.151581   C340.317566,364.042908 340.642761,361.185242 346.867218,354.743408   C347.572144,354.013855 348.327942,353.367065 348.177795,351.816559   C345.198608,349.651672 341.314697,348.547150 338.169464,346.111176   C329.166046,339.138184 325.484192,329.905212 326.892334,318.870270   C328.679657,304.864563 345.681000,296.803040 357.606567,303.988068   C364.679260,308.249298 366.414734,317.993866 361.103516,323.855072   C357.853851,327.441254 353.836639,328.674866 349.370239,326.669617   C344.924133,324.673553 342.929382,321.055634 343.831787,316.092987   C344.003693,315.147675 344.205933,314.207886 344.415955,313.156494   C338.474609,314.190521 335.822449,319.716034 337.913483,326.119446   C341.152069,336.037048 349.524231,340.561218 359.993530,338.115601   C370.284485,335.711639 378.934662,329.882446 387.587860,324.343414   C400.503235,316.076172 414.112579,311.950928 429.614105,312.725372   C444.741791,313.481171 459.938385,312.778992 475.102264,312.943756   C478.889221,312.984894 481.403809,312.131104 482.763702,308.273254   C484.213470,304.160553 487.464081,301.090729 490.106232,297.583527   C488.691498,295.951324 487.222137,294.583710 486.150085,292.954620   C483.496155,288.921875 484.590424,286.839600 489.475067,286.803925   C503.306915,286.702881 517.139709,286.732605 530.972168,286.714539   C532.972046,286.711914 534.975037,286.660187 536.971069,286.752136   C541.192627,286.946594 542.168823,288.787903 539.989685,292.515686   C539.412842,293.502563 538.523743,294.310547 537.755737,295.180969   C537.110840,295.911804 536.433472,296.613983 535.664795,297.442810   C538.930420,301.679382 542.198181,305.690460 544.214050,310.490723   C545.412354,313.344177 547.934448,312.864044 550.209351,312.868042   C567.374939,312.898193 584.544250,313.110504 601.704895,312.821350   C613.098450,312.629364 623.326355,315.728882 633.007202,321.500824   C641.726013,326.699219 650.183411,332.419464 659.688660,336.177155   C666.184692,338.745270 672.815369,340.289307 679.441650,336.597229   C685.266479,333.351715 688.658752,328.404541 688.591064,321.630035   C688.546082,317.124512 686.617859,313.640015 681.449585,312.435577   C680.711365,315.364990 682.849426,318.107880 681.429443,321.152649  M504.791321,297.203552   C492.308868,302.783813 486.767914,314.438049 490.624268,327.001190   C494.169373,338.550323 507.356415,345.648682 518.969299,342.258789   C531.156799,338.701172 538.493042,326.150330 535.966614,314.346436   C533.668640,303.610138 519.736694,291.453247 504.791321,297.203552  M508.704529,647.496216   C508.700287,634.539490 508.714783,621.582642 508.666809,608.626099   C508.661163,607.102661 509.220062,604.904968 506.564545,605.012268   C504.601288,605.091614 504.380066,606.746399 504.379028,608.322571   C504.367462,625.930359 504.358704,643.538086 504.366119,661.145874   C504.366760,662.696411 504.524384,664.382385 506.612366,664.296326   C508.685242,664.210876 508.668518,662.453979 508.682098,660.951477   C508.719543,656.799072 508.700775,652.646118 508.704529,647.496216  M504.346863,492.149109   C504.336731,506.306122 504.290863,520.463318 504.361603,534.619873   C504.370453,536.393982 503.355652,539.311096 506.357971,539.388794   C509.791473,539.477539 508.652008,536.322449 508.700073,534.428467   C508.847931,528.602966 508.747223,522.771118 508.749756,516.941772   C508.753204,508.947205 508.775482,500.952637 508.756805,492.958130   C508.753754,491.655914 508.947449,490.106537 507.336731,489.556091   C505.818146,489.037140 504.754852,489.680634 504.346863,492.149109  M508.713318,413.464233   C508.710754,401.984985 508.733002,390.505646 508.678650,379.026642   C508.670624,377.331818 509.307556,374.821198 506.597534,374.762604   C503.896667,374.704285 504.361786,377.180115 504.356293,378.911987   C504.315155,391.888367 504.330231,404.864960 504.330536,417.841461   C504.330566,419.172302 504.324707,420.503845 504.365509,421.833740   C504.409149,423.257782 504.738037,424.607971 506.485077,424.649567   C508.245209,424.691467 508.643799,423.377747 508.667938,421.933594   C508.709595,419.438751 508.700897,416.943024 508.713318,413.464233  M508.706512,564.503479   C508.692108,560.180237 508.682922,555.856934 508.660645,551.533691   C508.651733,549.802795 508.590668,547.937256 506.198669,548.065002   C503.966248,548.184326 504.391083,550.125854 504.385620,551.514771   C504.331940,565.149597 504.316589,578.784790 504.344208,592.419678   C504.347382,593.975098 503.831604,596.208801 506.211609,596.379456   C508.950348,596.575928 508.690399,594.204468 508.698700,592.439636   C508.741089,583.460754 508.711243,574.481445 508.706512,564.503479  M504.430267,478.668091   C504.794250,480.264160 505.828918,481.037964 507.343414,480.431549   C509.128784,479.716705 508.702606,477.928131 508.706512,476.496063   C508.742096,463.505798 508.749908,450.515381 508.711029,437.525146   C508.705872,435.804169 509.189941,433.344696 506.359161,433.532043   C503.614075,433.713715 504.371796,436.190948 504.365692,437.861084   C504.316925,451.184204 504.348724,464.507629 504.430267,478.668091  M508.647003,354.347351   C506.986786,351.453949 505.143646,351.676270 504.555023,354.727386   C503.968964,357.765076 504.381714,361.003479 504.434692,364.152557   C504.456635,365.457001 505.131378,366.428467 506.552490,366.402252   C507.946075,366.376526 508.643219,365.415039 508.674591,364.113373   C508.746399,361.130768 508.718292,358.145721 508.647003,354.347351  z"/>
  <path fill="#000000" opacity="1.000000" stroke="none" d=" M308.342621,309.341125   C270.057678,349.505768 247.227493,396.868225 238.173904,451.154724   C233.294754,480.410645 232.758789,509.827423 234.498367,539.264893   C237.395157,588.284424 251.241226,633.989868 279.833527,674.299255   C320.189148,731.192627 373.936371,770.097656 441.915710,786.436035   C532.048218,808.098877 615.520996,791.485779 689.074158,734.412354   C741.187561,693.975098 774.345703,640.753174 786.704407,575.284668   C791.512085,549.816345 793.454041,524.142578 792.580505,498.305054   C791.077271,453.842102 781.673645,411.185760 761.411133,371.327759   C734.245361,317.890625 692.779663,278.992889 639.420166,252.331802   C612.070129,238.666412 583.157227,230.069443 552.996704,225.489059   C549.545959,224.964996 546.016357,224.247070 542.582642,224.483047   C536.630188,224.892120 534.753418,221.506989 533.743713,216.355347   C539.512390,214.561569 545.121338,216.139481 550.522827,216.914215   C631.525818,228.532318 697.889343,265.660828 746.761536,331.831055   C773.970764,368.670807 789.476624,410.658417 796.408386,455.835358   C800.976746,485.609589 801.631775,515.592651 799.063171,545.507874   C795.565369,586.245605 785.032410,625.090637 764.362122,660.757996   C743.310669,697.082825 715.316528,727.003174 681.061462,751.203308   C645.033203,776.656250 605.009521,792.020569 561.682312,799.439270   C537.244629,803.623535 512.618469,804.880493 488.029022,802.974060   C440.545319,799.292725 396.609802,784.469360 356.433716,758.626587   C311.087524,729.458069 275.670593,691.427734 252.261551,642.642395   C239.699097,616.461792 232.178741,588.809814 228.564026,559.994507   C225.066223,532.111328 224.482208,504.133698 226.891205,476.243561   C234.066849,393.167725 268.804718,324.557526 335.967468,273.782867   C375.266113,244.073288 419.724274,226.238403 468.334778,218.578262   C476.184448,217.341293 484.007721,216.019119 492.612823,215.835709   C491.595917,220.581894 490.534027,223.875275 485.137756,224.511124   C453.715088,228.213654 423.240234,235.587143 394.351624,248.818512   C362.044250,263.615753 333.250580,283.411926 308.342621,309.341125  z"/>
  <path fill="#000000" opacity="1.000000" stroke="none" d=" M576.000000,756.302002   C524.528015,756.313538 473.556030,756.338989 422.584167,756.285278   C420.409241,756.283020 417.497498,757.449951 416.207031,754.915100   C414.948883,752.443726 416.786682,750.085693 418.073792,747.994629   C420.519867,744.020447 424.301941,741.510437 428.446289,739.672180   C431.149353,738.473206 432.044281,736.721802 432.031647,733.867004   C432.011047,729.212219 432.610596,724.549805 432.494995,719.901855   C432.399567,716.064758 434.137726,714.955811 437.594208,715.013550   C443.255798,715.108154 448.920624,714.999084 454.584106,714.993347   C498.726288,714.948425 542.868896,714.987000 587.010071,714.758362   C592.126526,714.731934 594.064087,716.285095 593.378845,721.294128   C593.155273,722.928345 593.488953,724.632690 593.339661,726.284302   C592.739014,732.927734 593.117310,738.453735 601.364746,740.743469   C605.879211,741.996765 608.159241,746.737244 609.560791,751.449158   C610.617065,755.000366 609.730469,756.394226 605.983643,756.354004   C596.156738,756.248474 586.328003,756.307678 576.000000,756.302002  M471.500000,729.864868   C497.790558,729.868286 524.085632,730.042847 550.327271,727.952332   C544.723877,727.247314 539.128174,726.612305 533.517639,726.428589   C504.230255,725.469299 474.932617,725.166565 445.630524,725.401855   C443.933960,725.415466 441.453308,724.792236 441.399750,727.536743   C441.346680,730.255798 443.793823,729.823669 445.524811,729.835449   C453.849548,729.892151 462.174866,729.863281 471.500000,729.864868  M443.595734,741.127625   C439.139038,741.297302 434.436737,740.517090 430.176849,744.579590   C445.630280,745.108154 460.264648,744.544617 474.849701,742.859192   C474.845093,742.283691 474.840454,741.708130 474.835846,741.132629   C464.746979,741.132629 454.658081,741.132629 443.595734,741.127625  z"/>
  <path fill="#000000" opacity="1.000000" stroke="none" d=" M382.409241,480.916443   C388.434357,478.644257 393.717224,479.308960 398.042419,483.582855   C402.593658,488.080048 401.894135,491.946381 395.606140,497.829102   C400.559479,498.561981 406.278229,500.032776 406.484039,504.893280   C406.970734,516.388855 414.526062,526.244385 413.335297,537.922424   C412.506317,546.052185 410.601990,553.745178 403.545227,558.924377   C401.897644,560.133606 401.815887,561.290771 402.008606,563.140869   C402.767029,570.422302 400.536133,576.339478 393.392334,579.460266   C391.331238,580.360596 390.550873,581.711365 389.950226,583.826111   C388.086853,590.386597 381.948883,593.920471 375.217621,592.540833   C372.773895,592.039856 370.648438,591.727234 368.054413,592.797729   C359.581238,596.294556 351.833130,591.349854 350.860046,582.103027   C350.582336,579.464050 350.727325,576.777710 350.726135,574.113037   C350.711639,541.463074 350.715820,508.813080 350.680145,476.163147   C350.677216,473.474579 350.823364,470.853119 351.817413,468.316925   C354.115112,462.454895 360.018524,459.782227 365.648224,462.591187   C368.052124,463.790649 370.171051,464.053772 372.713287,463.749878   C378.272369,463.085266 382.424835,465.640076 385.276154,470.216888   C386.656860,472.433136 388.295593,475.249268 385.967926,477.539001   C383.724792,479.745575 380.712006,481.105103 377.288635,480.022095   C376.228699,479.686768 375.451782,478.497406 373.379852,479.215973   C374.996429,488.623474 367.626617,491.654022 360.902435,494.436066   C361.120453,496.011871 361.660858,495.953735 362.080170,495.780334   C367.196045,493.664917 371.954529,493.744110 375.546387,498.524414   C379.505615,503.793640 383.128754,509.304443 380.204376,516.385071   C377.482574,522.975281 373.181244,523.704895 368.499420,518.512268   C366.096344,515.847046 363.468079,513.611694 359.483826,514.959961   C359.132996,515.900635 359.825470,516.153442 360.367188,516.460388   C367.879181,520.716187 369.809601,526.304688 365.241180,533.407104   C362.363098,537.881592 362.577179,540.878967 366.284546,544.611633   C370.646973,549.003967 370.274994,550.405518 365.428345,554.333679   C367.382599,555.190857 369.020020,554.148926 370.664185,553.453369   C371.883301,552.937683 372.971313,552.120178 374.170898,551.548645   C378.198792,549.629517 382.319427,548.205811 386.341705,551.408752   C389.100189,553.605347 390.025726,556.737549 388.795441,559.950073   C387.004395,564.626709 382.858124,566.400879 378.246490,567.280518   C376.084534,567.692993 373.557404,566.327271 371.743195,568.513977   C374.490814,575.716064 373.790771,577.570190 367.537079,579.839294   C371.233521,582.070435 375.093384,580.922913 376.956421,575.945068   C378.574127,571.622803 380.946991,568.999023 385.043701,566.859863   C390.101898,564.218628 391.937164,558.439392 390.468201,553.573364   C388.900879,548.381592 385.776855,546.429932 378.873871,546.329956   C372.752106,546.241211 368.963348,543.962769 367.870544,539.712891   C366.732239,535.286194 370.002228,527.599487 373.946228,525.430908   C386.027374,518.788147 387.833374,509.737671 379.231842,498.942963   C373.043945,491.177399 373.747681,486.696930 382.409241,480.916443  M399.494446,533.735474   C402.213684,524.952698 399.837189,516.657898 392.525940,512.200745   C395.795746,517.512329 397.978241,522.224548 397.449707,527.741211   C396.856628,533.932007 393.097595,537.300598 386.830383,539.178223   C393.416016,540.606934 395.550781,539.687927 399.494446,533.735474  z"/>
  <path fill="#000000" opacity="1.000000" stroke="none" d=" M328.004272,489.892639   C325.249725,486.635437 326.176544,482.534760 324.518646,479.359039   C322.212830,478.664429 321.183807,481.322723 318.870300,480.920288   C311.367035,479.615143 309.773743,476.317932 313.973511,469.925018   C314.787903,468.685394 315.647430,467.198242 316.870331,466.549438   C324.493134,462.505432 332.937469,462.269531 341.216583,462.451752   C344.645660,462.527222 346.526520,466.231995 347.236267,469.675812   C347.703949,471.944977 347.969482,474.298401 347.971710,476.614471   C348.004425,510.780609 348.003204,544.946838 347.948761,579.112915   C347.933655,588.594177 344.508331,593.881714 337.237305,593.532410   C331.275421,593.245911 325.360443,592.699707 319.342255,592.646118   C314.334015,592.601501 310.427185,588.971619 309.721161,583.390381   C309.450653,581.252075 308.475586,580.185669 306.600922,579.394409   C299.652161,576.461182 297.143707,570.937256 297.736206,563.706787   C297.882477,561.921631 298.233002,560.398315 296.470276,558.791687   C285.731445,549.004150 282.732971,534.338074 288.685242,521.473206   C290.292725,517.998901 291.548157,514.823975 291.001953,510.609161   C290.135193,503.920319 293.965179,500.305450 302.883514,497.757019   C302.580811,497.164825 302.404602,496.529572 302.009735,496.091400   C296.325745,489.784180 298.236908,482.966949 306.456329,480.314453   C312.768555,478.277435 320.121735,481.748932 322.489532,487.935699   C323.702454,491.104950 323.614899,494.068176 321.146454,496.767883   C319.693237,498.357208 318.374634,500.113525 317.246887,501.949188   C311.755432,510.887665 314.023346,520.592346 323.405670,525.228027   C329.189819,528.085938 330.446533,532.942993 331.155884,538.197205   C331.799713,542.966125 326.542511,547.310120 321.200775,547.018127   C313.180817,546.579773 310.376984,548.081909 308.745819,553.690857   C307.213959,558.958313 310.016663,565.392822 315.855560,568.201294   C319.269379,569.843201 321.169312,571.665710 322.145416,575.518738   C323.452759,580.679382 327.862000,582.263855 333.069550,579.919678   C330.302765,578.723572 327.103302,578.852783 325.980621,575.725769   C324.991882,572.971619 327.785339,570.697266 326.813477,568.015686   C324.971619,566.551086 322.894836,567.332825 320.969574,567.336853   C317.359741,567.344543 314.486328,565.995850 312.267090,563.222595   C309.622528,559.917786 308.825684,556.194275 311.198242,552.576538   C313.446838,549.147827 317.083038,549.282349 320.667511,550.153809   C324.866058,551.174561 328.220032,554.473877 333.750183,554.783875   C328.287537,550.754883 329.883972,547.172241 333.488434,543.949890   C336.572937,541.192261 337.166016,538.916199 334.458557,535.131531   C328.369324,526.619873 329.545837,522.453308 338.882629,515.420776   C335.280090,514.002869 333.892426,514.543640 330.769684,518.114563   C329.137604,519.980774 328.376709,523.490417 324.867401,522.451599   C321.159210,521.354065 318.586731,518.847778 317.610596,514.901550   C316.002106,508.398804 321.483765,497.157776 327.513062,494.621765   C330.873627,493.208252 333.585663,495.407745 337.167694,496.343811   C334.842896,492.673584 331.132904,492.016357 328.004272,489.892639  M301.553406,520.523254   C302.570984,518.009644 303.588593,515.495972 304.739655,512.652649   C296.439789,519.764160 295.850098,532.807556 303.266022,538.621948   C306.321930,541.017944 307.577362,541.072937 310.839874,538.954041   C301.990356,534.733643 299.656281,530.409912 301.553406,520.523254  z"/>
  <path fill="#000000" opacity="1.000000" stroke="none" d=" M397.630432,649.718384   C353.297546,678.344421 297.502228,655.437500 280.370575,622.197205   C328.224701,622.197205 375.827972,622.197205 424.386322,622.197205   C418.075836,634.577148 408.460602,642.479736 397.630432,649.718384  M317.267181,640.277771   C314.622925,637.761475 311.746918,635.442749 309.391479,632.680176   C306.250916,628.996826 302.572113,628.663086 298.219727,629.690918   C303.175568,638.611389 320.013336,648.974609 328.494720,648.257141   C324.803772,645.656555 321.309204,643.194336 317.267181,640.277771  z"/>
  <path fill="#000000" opacity="1.000000" stroke="none" d=" M714.040771,652.149475   C668.245239,676.903259 618.055603,654.663696 602.014465,622.334229   C649.725586,622.334229 697.122314,622.334229 745.742188,622.334229   C737.380188,635.451111 726.824036,644.692932 714.040771,652.149475  M652.011292,644.645691   C645.484558,641.655151 638.941895,638.401794 633.927979,633.322144   C629.207336,628.539551 624.093994,629.073547 618.270203,629.535889   C631.507263,648.108887 669.821228,660.070190 688.057617,651.274536   C675.482300,652.004089 663.822144,649.922485 652.011292,644.645691  z"/>
  <path fill="#000000" opacity="1.000000" stroke="none" d=" M537.000000,711.202881   C511.028809,711.238708 485.557587,711.284790 460.086395,711.299561   C454.490417,711.302795 454.030823,710.724854 454.824432,705.277100   C456.425323,694.287537 462.926483,688.698120 474.150146,688.711243   C500.287231,688.741882 526.430481,689.140137 552.558777,688.681152   C565.578735,688.452454 570.717712,697.835754 572.053955,707.662292   C572.538269,711.224060 569.871887,711.183655 567.466248,711.187866   C557.477478,711.205566 547.488770,711.199341 537.000000,711.202881  M470.491943,701.650635   C476.701721,701.683411 476.701721,701.683411 478.509125,698.663330   C474.282410,698.606384 470.263275,696.954590 466.065186,701.015442   C467.915833,701.322449 468.850494,701.477478 470.491943,701.650635  z"/>
  <path fill="#000000" opacity="1.000000" stroke="none" d=" M495.800629,221.006989   C500.910187,209.046219 505.586029,197.307388 512.001709,186.787354   C513.840454,186.507309 514.352783,187.443039 514.794006,188.318390   C520.413147,199.467865 526.499268,210.405838 530.694397,222.214905   C533.014709,228.746490 534.147461,235.382706 531.818176,242.245300   C529.873596,247.974640 525.479248,251.418274 520.703918,254.205994   C520.895996,256.994904 522.662598,258.476044 523.718689,260.307373   C525.362000,263.157074 525.923157,266.246918 523.732666,268.725647   C520.352600,272.550385 522.530212,274.918091 525.152527,277.563171   C526.625732,279.049225 528.935913,279.780884 529.638916,282.761902   C518.551025,282.761902 507.652527,282.761902 496.236053,282.761902   C497.510406,279.374420 500.696960,278.383392 502.449707,276.109985   C503.555481,274.675751 505.468384,273.238403 503.782349,271.402496   C499.057800,266.258087 501.153900,261.687653 504.525421,257.067383   C504.904327,256.548187 505.099091,255.894592 505.643677,254.745224   C491.865173,246.851776 490.297607,235.098114 495.800629,221.006989  M507.708557,242.792877   C506.214417,236.728592 507.862640,230.992935 509.692902,225.327408   C510.540039,222.705170 510.435394,220.433731 508.775024,217.770233   C506.501526,222.608719 504.711975,227.063828 503.748016,231.768127   C503.017181,235.334717 502.644531,239.045074 504.313873,242.467148   C504.871368,243.610016 505.575928,246.723419 507.708557,242.792877  M521.766785,234.205566   C521.414734,233.457306 521.927063,232.187866 520.296997,232.001419   C520.838928,236.482910 518.682800,240.619034 518.800049,245.277130   C523.017700,242.456650 523.354797,241.217560 521.766785,234.205566  z"/>
  <path fill="#000000" opacity="1.000000" stroke="none" d=" M584.467896,616.913086   C582.121094,615.059387 580.129700,613.133240 581.175842,610.399109   C582.159180,607.829346 584.899414,608.717590 586.946289,608.701782   C622.408325,608.428833 657.877563,607.699707 693.330627,608.169861   C714.803040,608.454529 736.274292,608.309814 757.742126,608.680603   C759.680725,608.714111 762.548767,607.638794 763.080811,610.780701   C763.619385,613.960510 761.850220,616.278748 758.929932,617.381958   C757.427368,617.949646 755.674255,618.030090 754.034058,618.032043   C699.745728,618.095459 645.457458,618.121277 591.169128,618.160645   C588.991089,618.162231 586.833618,618.116638 584.467896,616.913086  z"/>
  <path fill="#000000" opacity="1.000000" stroke="none" d=" M268.153931,608.666809   C324.770569,608.663696 380.908356,608.640015 437.045990,608.735779   C439.369659,608.739746 443.240417,607.032043 443.705505,610.874084   C444.189728,614.874390 441.157959,617.294495 437.249298,617.732117   C433.624664,618.137878 429.939209,618.086243 426.280457,618.088623   C374.807220,618.122131 323.333954,618.136719 271.860718,618.118469   C270.053223,618.117798 268.140015,618.033997 266.461884,617.452576   C263.546906,616.442688 261.545929,614.168396 261.970764,611.021057   C262.431274,607.609375 265.579956,609.049133 268.153931,608.666809  z"/>
  <path fill="#000000" opacity="1.000000" stroke="none" d=" M274.602234,301.343628   C269.574371,294.897949 264.892365,288.619781 259.894501,282.604095   C257.759247,280.033966 257.857513,278.580200 260.105865,275.960999   C264.126587,271.277069 268.238312,269.906036 274.031067,272.434296   C276.818298,273.650787 279.888397,274.798706 283.465790,274.623230   C284.462189,269.174103 282.803925,263.982117 281.368347,259.098907   C279.721039,253.495300 283.405914,251.530563 286.467529,249.014465   C289.843231,246.240280 291.536469,250.085251 293.514984,251.532303   C301.144287,257.112183 308.560974,262.982819 316.466187,269.059692   C313.389862,272.596375 310.602112,275.810181 307.803955,279.014893   C305.963135,281.123199 304.478668,280.441406 302.943848,278.530273   C300.153290,275.055511 297.242767,271.677124 293.921265,267.707520   C294.423828,273.508484 294.788635,278.555939 295.318024,283.586029   C295.810608,288.266632 293.450684,289.054810 289.600494,288.038269   C285.603027,286.982910 281.606354,285.924500 276.833099,284.662170   C279.388947,287.735382 281.413879,290.446960 283.730713,292.880646   C286.202667,295.477264 286.877014,297.719147 283.840302,300.414368   C282.142273,301.921417 280.864777,303.902252 279.477814,305.573151   C276.849854,305.124786 276.267578,302.882599 274.602234,301.343628  z"/>
  <path fill="#000000" opacity="1.000000" stroke="none" d="M 353.557 777.942 C 347.474 787.066 341.575 795.911 335.503 805.015 C 331.478 803.11 328.554 800.295 325.251 797.459 C 328.471 793.198 331.547 789.128 335.3 784.163 C 328.496 786.452 323.067 789.778 316.331 790.317 C 316.199 784.029 317.886 778.3 318.644 772.419 C 314.69 776.024 310.775 779.594 306.528 783.465 C 303.371 781.809 301.511 778.167 298.546 775.434 C 300.568 771.639 304.096 769.586 306.899 766.849 C 311.068 762.78 315.188 758.655 319.478 754.716 C 321.005 753.314 322.213 749.892 324.965 751.978 C 327.854 754.168 331.677 756.203 330.877 760.997 C 330.063 765.872 329.247 770.747 328.35 776.106 C 333.916 775.026 338.275 772.206 343.055 770.565 C 347.158 769.157 352.946 772.992 353.557 777.942 Z"/>
  <path fill="#000000" opacity="1.000000" stroke="none" d=" M392.720856,217.407043   C393.531982,220.291153 395.365021,222.461105 395.346222,225.198273   C388.253571,229.776505 387.708557,229.649414 384.577087,222.325760   C381.571686,215.296936 378.557800,208.269318 375.730713,201.168289   C375.008453,199.354050 372.641815,197.075623 375.018982,195.381989   C377.601685,193.541916 380.578217,191.701599 384.215149,193.796112   C390.254272,197.274063 396.435364,200.505478 403.216370,204.200195   C402.087067,199.120010 400.287750,194.976990 398.324432,190.954269   C396.181610,186.563828 399.092896,185.642197 402.126709,184.205170   C405.377686,182.665283 406.847198,183.570374 408.030457,186.798584   C411.626831,196.610535 415.464844,206.333939 419.212372,216.101196   C415.076416,219.587234 411.361938,220.328003 406.720398,217.579895   C401.606140,214.551895 396.384796,211.564240 390.224365,209.606079   C390.060272,212.548599 391.857971,214.662415 392.720856,217.407043  z"/>
  <path fill="#000000" opacity="1.000000" stroke="none" d="M 399.429 838.929 C 393.857 837.247 393.276 834.387 395.327 829.445 C 399.073 820.418 402.044 811.069 405.394 801.7 C 408.688 801.63 410.692 803.192 412.13 805.904 C 415.538 812.332 419.036 818.713 423.059 826.149 C 424.372 822.022 425.399 818.96 426.319 815.866 C 428.187 809.58 428.391 809.442 434.52 811.732 C 435.569 812.124 436.836 812.247 437.74 814.114 C 434.661 823.866 431.531 834.163 428.123 844.368 C 426.89 848.062 424.474 848.158 422.138 844.522 C 418.906 839.493 416.065 834.214 413.039 829.052 C 412.035 827.338 410.977 825.656 409.659 823.492 C 406.743 827.589 405.974 832.17 404.296 836.332 C 403.431 838.479 402.789 840.61 399.429 838.929 Z"/>
  <path fill="#000000" opacity="1.000000" stroke="none" d="M 557.517 847.772 C 558.276 853.504 554.289 852.326 551.354 852.754 C 547.861 853.264 547.192 851.337 546.888 848.423 C 545.904 839.002 544.847 829.584 543.526 820.206 C 543.105 817.216 543.913 815.67 546.797 815.332 C 551.087 814.83 555.389 814.204 559.696 814.116 C 564.676 814.014 568.772 815.953 571.099 820.713 C 573.421 825.461 572.83 829.82 569.105 833.535 C 567.179 835.456 567.677 836.83 569.23 838.602 C 572.147 841.929 575.797 844.62 578.219 848.458 C 571.441 852.208 568.002 851.63 563.532 846.205 C 561.576 843.832 559.589 841.484 556.789 838.136 C 557.101 842.158 557.302 844.762 557.517 847.772 M 557.651 829.887 C 559.719 829.551 561.651 828.917 561.606 826.374 C 561.58 824.908 560.443 823.998 559.015 823.817 C 557.579 823.635 555.78 823.244 555.077 824.948 C 554.244 826.967 554.772 828.808 557.651 829.887 Z"/>
  <path fill="#000000" opacity="1.000000" stroke="none" d="M 528.329 837.813 C 527.892 852.353 517.469 860.035 505.261 855.184 C 498.674 852.567 495.408 847.372 495.13 840.459 C 494.889 834.471 495.192 828.463 495.107 822.465 C 495.04 817.722 498.139 817.85 501.516 817.779 C 505.158 817.702 506.613 819.093 506.424 822.8 C 506.136 828.455 506.182 834.127 506.111 839.793 C 506.068 843.239 507.34 845.622 511.168 845.892 C 514.915 846.156 516.628 844.113 517.221 840.693 C 518.226 834.896 517.78 829.045 517.633 823.24 C 517.518 818.694 520.037 818.664 523.317 818.555 C 526.853 818.437 528.578 819.494 528.387 823.342 C 528.156 827.997 528.33 832.672 528.329 837.813 Z"/>
  <path fill="#000000" opacity="1.000000" stroke="none" d=" M637.669800,228.757202   C628.694397,223.926910 625.944641,217.770660 629.003418,208.779816   C630.979675,202.970901 633.586792,197.377533 635.879822,191.674988   C636.759766,189.486755 638.099426,188.114929 640.349426,189.818359   C642.541138,191.477570 647.453003,191.026901 645.838989,195.881577   C644.690369,199.336105 642.951233,202.591965 641.525696,205.957718   C640.814026,207.638199 639.993835,209.318481 639.612488,211.083084   C638.927368,214.252945 638.543701,217.699768 642.225037,219.301041   C646.072144,220.974442 648.090027,218.267319 649.563416,215.255310   C651.753662,210.777924 654.008850,206.315140 655.867981,201.697830   C657.749023,197.026016 660.526733,198.994415 663.517090,200.072647   C667.024719,201.337372 667.037109,203.235443 665.496704,206.189789   C663.502930,210.013550 661.891724,214.038742 660.157471,217.995529   C655.367798,228.923203 649.556091,231.801971 637.669800,228.757202  z"/>
  <path fill="#000000" opacity="1.000000" stroke="none" d="M 682.412 252.559 C 681.04 251.23 680.069 250.121 680.724 248.385 C 681.288 246.893 682.637 245.388 681.13 243.783 C 678.515 240.998 675.827 238.279 673.111 235.591 C 672.86 235.342 672.073 235.323 671.729 235.525 C 664.133 240.001 664.207 231.289 660.119 229.767 C 660.184 229.339 660.25 228.912 660.316 228.484 C 664.945 226.764 669.557 224.996 674.208 223.337 C 680.474 221.102 686.839 219.126 693.024 216.692 C 696.212 215.438 698.267 216.366 700.585 218.474 C 703.237 220.884 701.529 222.858 700.649 225.147 C 697.667 232.907 694.828 240.722 691.892 248.5 C 690.847 251.268 690.18 254.218 688.309 256.694 C 685.592 256.49 684.549 254.036 682.412 252.559 M 687.948 230.352 C 685.53 228.362 684.214 230.404 682.524 231.471 C 683.317 233.153 684.118 234.308 685.825 234.608 C 687.307 233.838 687.326 232.244 687.948 230.352 Z" style="transform-box: fill-box; transform-origin: 50% 50%;" transform="matrix(0.965926, -0.258819, 0.258819, 0.965926, 0, -0.000006)"/>
  <path fill="#000000" opacity="1.000000" stroke="none" d="M 705.102 791.665 C 701.966 788.787 699.374 788.925 696.84 792.042 C 694.308 795.156 690.089 796.85 691.921 802.714 C 692.878 805.776 688.149 807.375 685.316 808.733 C 683.223 807.335 683.07 805.188 682.421 803.364 C 679.353 794.749 676.373 786.101 673.41 777.449 C 672.844 775.794 671.591 773.831 673.807 772.553 C 676.407 771.055 678.295 767.196 681.893 768.696 C 692.761 773.228 703.478 778.122 715.191 783.288 C 711.29 786.176 709.699 790.373 705.102 791.665 M 689.134 787.721 C 690.211 787.004 691.517 786.463 691.39 784.667 C 689.971 783.381 688.395 782.427 685.927 782.623 C 686.45 784.817 685.671 787.199 689.134 787.721 Z"/>
  <path fill="#000000" opacity="1.000000" stroke="none" d="M 625.535 825.904 C 627.892 828.665 630.473 830.834 631.664 834.048 C 629.404 836.346 626.488 836.65 623.884 837.603 C 621.256 838.565 620.342 836.341 619.29 834.766 C 617.775 832.499 616.115 830.651 613.236 832.286 C 610.101 834.067 604.818 833.087 604.83 839.05 C 604.845 846.663 598.199 842.786 594.943 845.467 C 593.282 840.623 595.258 836.806 595.404 832.906 C 595.691 825.269 596.579 817.656 596.908 810.02 C 597.091 805.795 600.62 805.919 603.037 804.546 C 605.62 803.078 606.925 804.937 608.394 806.61 C 613.993 812.984 619.654 819.303 625.535 825.904 M 607.561 825.301 C 610.56 822.966 610.426 822.557 605.785 819.888 C 604.852 823.288 604.852 823.288 607.561 825.301 Z"/>
  <path fill="#000000" opacity="1.000000" stroke="none" d=" M346.849365,251.728027   C344.281555,253.845856 342.612518,253.453751 340.938110,250.910629   C335.542084,242.714981 330.019867,234.600983 324.443695,226.526382   C323.069733,224.536819 323.398346,223.251648 325.315125,222.021561   C330.494446,218.697769 335.643585,215.326920 340.811096,211.984619   C342.746613,210.732742 344.625000,210.325211 345.598328,213.024918   C346.442932,215.367584 349.631897,217.813980 345.572235,220.201630   C343.567017,221.380981 341.595856,222.622345 339.652740,223.901672   C338.340088,224.765915 338.001160,225.985794 338.901093,227.333954   C339.752960,228.610092 340.902832,228.228592 341.988037,227.660049   C343.312805,226.966019 344.577118,226.147629 345.931671,225.521744   C347.663330,224.721588 349.723694,223.101212 350.939240,225.969559   C351.855988,228.132904 353.397095,230.622879 350.350525,232.597610   C348.959045,233.499527 347.613770,234.490295 346.342163,235.553909   C345.344666,236.388229 345.102783,237.465744 345.873810,238.660568   C346.745026,240.010635 347.811523,240.287033 349.267700,239.561295   C352.548706,237.926117 355.080963,235.225098 357.919006,233.122681   C364.126953,238.606232 364.126160,240.226532 357.992828,244.436172   C354.428406,246.882614 350.756042,249.171768 346.849365,251.728027  z"/>
  <path fill="#000000" opacity="1.000000" stroke="none" d="M 370.26 784.479 C 377.21 787.478 383.471 791.095 389.161 794.834 C 389.259 797.115 387.908 797.872 387.388 799.054 C 385.596 803.123 383.147 803.623 379.715 800.796 C 378.602 799.879 377.092 799.3 375.669 798.944 C 374.245 798.586 373.752 799.816 373.331 800.979 C 372.499 803.281 374.239 803.826 375.686 804.628 C 378.343 806.103 381.952 806.833 379.204 811.438 C 377.21 814.779 375.354 815.643 372.219 813.076 C 371.213 812.252 369.931 811.737 368.723 811.196 C 367.636 810.709 366.829 811.194 366.236 812.18 C 365.585 813.263 365.914 814.16 366.842 814.757 C 368.796 816.014 370.744 817.33 372.842 818.303 C 375.666 819.613 376.136 821.307 374.292 823.735 C 372.809 825.688 372.144 829.101 368.368 826.774 C 363.983 824.071 359.477 821.566 355.092 818.863 C 353.546 817.91 351.792 816.681 353.148 814.471 C 359.132 804.717 363.268 793.93 370.26 784.479 Z"/>
  <path fill="#000000" opacity="1.000000" stroke="none" d=" M437.794312,192.269791   C433.562164,188.543716 432.353912,184.157974 434.357727,179.395966   C436.383942,174.580734 440.781738,172.936630 445.716278,172.587555   C446.710236,172.517258 447.714935,172.574890 448.713837,172.603119   C456.013031,172.809341 457.547394,175.901932 453.693634,182.952972   C451.686798,182.427551 449.657715,181.781113 447.580078,181.397446   C446.417023,181.182678 445.164978,181.491806 444.809357,182.913971   C444.524841,184.051880 445.347229,184.780869 446.115143,185.417984   C447.849091,186.856506 450.072845,187.087708 452.119080,187.747910   C459.774811,190.217987 463.461456,194.877304 462.509888,200.906891   C461.557373,206.942413 455.910461,211.172287 448.547363,211.364304   C448.214233,211.373001 447.880432,211.382645 447.547607,211.371506   C444.576172,211.272202 440.627472,211.953079 439.361389,209.070267   C437.951019,205.858978 439.978729,202.430923 442.362854,199.448822   C443.758545,200.408127 444.911957,201.341064 446.190857,202.046448   C448.019165,203.054871 449.949097,202.942322 450.986908,201.032455   C452.252594,198.703384 450.281708,197.600983 448.571381,197.020370   C444.946381,195.789780 441.220520,194.856995 437.794312,192.269791  z"/>
  <path fill="#000000" opacity="1.000000" stroke="none" d="M 471.581 831.629 C 475.932 835.719 477.163 840.22 474.76 845.406 C 472.564 850.143 467.866 852.56 461.963 852.116 C 460.48 852.004 458.974 851.821 457.545 851.428 C 447.947 848.788 447.396 846.627 454.436 839.199 C 456.681 839.607 457.557 842.059 459.597 842.812 C 461.258 843.424 462.931 843.71 464.105 842.073 C 465.356 840.328 464.434 838.919 462.966 837.828 C 460.568 836.044 458.012 834.427 456.229 831.966 C 453.431 828.106 452.023 823.941 454.576 819.435 C 457.132 814.926 461.368 813.29 466.335 813.409 C 467.801 813.444 469.341 813.779 470.7 814.335 C 479.575 817.966 481.14 818.924 473.419 826.95 C 471.839 827.07 471.292 825.569 470.224 824.881 C 468.484 823.76 466.439 821.528 464.681 823.974 C 463.13 826.132 465.676 827.398 467.207 828.563 C 468.525 829.565 469.935 830.447 471.581 831.629 Z"/>
  <path fill="#000000" opacity="1.000000" stroke="none" d=" M586.776550,178.701172   C587.585266,173.431168 590.104309,172.753632 594.564880,174.353104   C600.648621,176.534592 606.964844,178.081604 613.212463,179.786667   C616.441101,180.667816 616.899597,182.483521 615.815491,185.396103   C614.849426,187.991745 614.338318,190.746185 610.470886,189.195389   C608.803711,188.526855 607.087158,187.799530 604.731934,188.259979   C602.885132,194.774399 600.863831,201.417618 599.150146,208.139267   C598.185608,211.922241 596.419983,212.803116 592.675720,211.620117   C589.165039,210.510941 587.698303,209.306503 589.026428,205.304611   C591.212036,198.718811 592.781372,191.928497 594.397583,186.004822   C592.563965,181.953430 585.971008,185.009338 586.776550,178.701172  z"/>
  <path fill="#000000" opacity="1.000000" stroke="none" d="M 659.65 786.524 C 660.439 788.171 661.1 789.478 661.719 790.703 C 660.252 793.504 656.848 793.2 655.012 795.784 C 657.163 802.181 660.519 808.285 663.518 814.528 C 664.982 817.576 665.747 819.715 661.706 821.63 C 657.756 823.503 656.011 822.236 654.367 818.802 C 651.367 812.536 648.129 806.382 644.925 800.053 C 643.618 800.392 642.585 800.455 641.765 800.906 C 636.652 803.717 636.117 799.368 634.548 796.448 C 632.447 792.539 635.84 792.485 637.904 791.531 C 643.336 789.021 648.824 786.628 654.218 784.041 C 656.939 782.737 658.648 783.255 659.65 786.524 Z"/>
  <path fill="#000000" opacity="1.000000" stroke="none" d=" M424.840424,602.171204   C419.635986,589.681702 416.121643,577.035461 412.051727,564.578613   C411.694580,563.485474 411.311890,562.293274 411.402710,561.184937   C411.563110,559.227844 412.768066,557.604126 414.642120,557.202209   C416.514404,556.800598 417.047089,558.666748 417.521576,560.040405   C420.824799,569.603699 424.061218,579.190063 427.339111,588.762146   C429.100830,593.906799 430.902283,599.037964 432.777618,604.439575   C429.380951,605.617371 426.645935,606.296326 424.840424,602.171204  z"/>
  <path fill="#000000" opacity="1.000000" stroke="none" d=" M280.632629,596.564819   C277.923706,605.773315 277.743042,605.925110 270.807098,604.328247   C275.755188,589.105286 280.683716,573.942566 285.695496,558.523743   C290.272095,559.988525 291.522675,562.323120 290.250793,566.253540   C287.028198,576.212097 283.926605,586.209900 280.632629,596.564819  z"/>
  <path fill="#000000" opacity="1.000000" stroke="none" d=" M198.704895,586.989136   C202.687836,588.585632 205.053925,590.974731 203.684067,595.134033   C202.702515,598.114258 200.322937,599.743164 197.086746,599.174438   C193.747543,598.587585 191.694504,596.403931 191.821198,592.963257   C191.966812,589.008850 194.451752,587.103699 198.704895,586.989136  z"/>
  <path fill="#000000" opacity="1.000000" stroke="none" d=" M834.558838,429.812073   C833.620483,434.325439 830.941467,436.234100 826.915710,435.284515   C823.549622,434.490540 822.221985,431.755157 822.760925,428.367004   C823.235046,425.386047 825.225098,423.486053 828.140564,423.393585   C832.028931,423.270233 834.231934,425.521881 834.558838,429.812073  z"/>
  <path fill="#000000" opacity="1.000000" stroke="none" d=" M786.177490,683.459351   C785.504028,678.764893 787.750488,676.362183 791.727295,675.842834   C795.334412,675.371887 797.315186,677.892944 797.982361,681.040955   C798.660950,684.242554 796.839600,686.571655 793.926514,687.653931   C790.212341,689.033875 787.974304,686.872253 786.177490,683.459351  z"/>
  <path fill="#000000" opacity="1.000000" stroke="none" d=" M787.048462,335.211853   C791.537903,332.005951 794.800476,332.298584 797.096313,335.859406   C799.101929,338.970123 798.148865,341.622498 795.480713,343.727051   C793.293701,345.452057 790.833801,345.637482 788.599854,343.796295   C785.889587,341.562622 784.631958,338.880493 787.048462,335.211853  z"/>
  <path fill="#000000" opacity="1.000000" stroke="none" d=" M229.563705,677.625854   C233.408844,674.842346 236.640106,675.459839 238.775009,679.020874   C240.641006,682.133484 239.758499,685.134888 236.592484,687.185120   C234.122849,688.784363 231.783066,688.256531 229.784592,686.358582   C227.048599,683.760254 227.078522,680.867004 229.563705,677.625854  z"/>
  <path fill="#000000" opacity="1.000000" stroke="none" d=" M236.106384,344.350159   C231.787399,345.799500 229.183731,343.997589 227.980423,340.436249   C226.936569,337.346802 228.420364,334.895264 231.323639,333.467773   C234.433441,331.938690 236.975418,333.214386 238.733383,335.695129   C241.239273,339.231384 239.418701,341.935211 236.106384,344.350159  z"/>
  <path fill="#000000" opacity="1.000000" stroke="none" d=" M203.817215,429.833649   C203.384872,431.869965 202.593506,433.333008 201.164490,434.264771   C198.332199,436.111389 195.410889,436.132446 193.181091,433.473541   C190.869873,430.717560 190.910980,427.506165 193.660873,425.093384   C196.349152,422.734650 199.410294,422.985229 202.083389,425.475159   C203.206161,426.520996 203.668228,427.947815 203.817215,429.833649  z"/>
  <path fill="#000000" opacity="1.000000" stroke="none" d=" M828.021057,587.039551   C830.644348,587.429382 832.650452,588.335693 833.645020,590.447327   C835.121460,593.582275 834.393311,596.383972 831.481140,598.285034   C828.694824,600.103882 825.943054,599.505005 823.894470,597.035645   C821.670715,594.355042 822.154663,591.458679 824.132874,588.794250   C824.967957,587.669556 826.313171,587.330750 828.021057,587.039551  z"/>
  <path fill="#000000" opacity="1.000000" stroke="none" d=" M512.963745,299.661072   C525.781616,300.564667 532.980530,308.995911 532.348083,321.846558   C531.899902,330.954071 522.749695,339.145355 512.980286,339.184631   C502.616455,339.226257 493.171814,330.255707 492.877411,320.090790   C492.562805,309.228546 501.159424,300.287140 512.963745,299.661072  M513.811096,316.554749   C510.527863,317.599731 507.891602,319.488190 506.190216,322.531158   C504.836853,324.951721 505.371948,326.524841 508.458160,327.178894   C510.589539,322.057190 513.564331,320.626160 517.796936,324.897583   C518.547119,325.654663 519.552551,325.814178 520.500732,325.105835   C521.572632,324.305023 521.781494,323.164490 521.424500,321.989624   C520.394470,318.599396 517.950134,316.901154 513.811096,316.554749  z"/>
  <path fill="#000000" opacity="1.000000" stroke="none" d="M 214.718 503.34 C 208.635 512.464 202.736 521.309 196.664 530.413 C 192.639 528.508 189.715 525.693 186.412 522.857 C 189.632 518.596 192.708 514.526 196.461 509.561 C 189.657 511.85 184.228 515.176 177.492 515.715 C 177.36 509.427 179.047 503.698 179.805 497.817 C 175.851 501.422 171.936 504.992 167.689 508.863 C 164.532 507.207 162.672 503.565 159.707 500.832 C 161.729 497.037 165.257 494.984 168.06 492.247 C 172.229 488.178 176.349 484.053 180.639 480.114 C 182.166 478.712 183.374 475.29 186.126 477.376 C 189.015 479.566 192.838 481.601 192.038 486.395 C 191.224 491.27 190.408 496.145 189.511 501.504 C 195.077 500.424 199.436 497.604 204.216 495.963 C 208.319 494.555 214.107 498.39 214.718 503.34 Z" style="transform-box: fill-box; transform-origin: 50% 50%;" transform="matrix(0.773502, -0.633794, 0.633794, 0.773502, -0.000017, 0.000017)"/>
  <path fill="#000000" opacity="1.000000" stroke="none" d="M 862.91 508.456 C 856.827 517.58 850.928 526.425 844.856 535.529 C 840.831 533.624 837.907 530.809 834.604 527.973 C 837.824 523.712 840.9 519.642 844.653 514.677 C 837.849 516.966 832.42 520.292 825.684 520.831 C 825.552 514.543 827.239 508.814 827.997 502.933 C 824.043 506.538 820.128 510.108 815.881 513.979 C 812.724 512.323 810.864 508.681 807.899 505.948 C 809.921 502.153 813.449 500.1 816.252 497.363 C 820.421 493.294 824.541 489.169 828.831 485.23 C 830.358 483.828 831.566 480.406 834.318 482.492 C 837.207 484.682 841.03 486.717 840.23 491.511 C 839.416 496.386 838.6 501.261 837.703 506.62 C 843.269 505.54 847.628 502.72 852.408 501.079 C 856.511 499.671 862.299 503.506 862.91 508.456 Z" style="transform-origin: 835.405px 508.682px;" transform="matrix(0.773502, -0.633794, 0.633794, 0.773502, -0.000019, -0.000045)"/>
  <text style="font-family: Calibri; font-size: 119px; font-weight: 700; white-space: pre;" transform="matrix(1.389324, 0, 0, 1.221133, -263.870064, -130.267445)" x="646.81" y="583.76">?</text>
</svg>